<svg id="Layer_1" data-name="Layer 1" xmlns="http://www.w3.org/2000/svg" viewBox="0 0 140.35 46.52"><defs><style>.cls-1{fill:#f3c517;}</style></defs><title>logo</title><path class="cls-1" d="M6.55,4v6.85c1.37-.41,1.73-.68,2.82-.9a17.42,17.42,0,0,1,3.18-.47,12.86,12.86,0,0,1,2.86.19,9,9,0,0,1,3.72,1.15,7.54,7.54,0,0,1,3,3.07,7.51,7.51,0,0,1,.94,2.63,20.74,20.74,0,0,1,.24,3.35V32.39a4.34,4.34,0,0,1-.9,3,3,3,0,0,1-2.39,1q-3.24,0-3.24-4V21.33a10.15,10.15,0,0,0-.94-4.83q-.94-1.69-3.55-1.69a5.32,5.32,0,0,0-3.15,1,6,6,0,0,0-2.1,2.72,17.42,17.42,0,0,0-.53,5.21v8.66a4.43,4.43,0,0,1-.88,3,3,3,0,0,1-2.43,1q-3.24,0-3.24-4V4A4.5,4.5,0,0,1,.85,1,3,3,0,0,1,3.24,0,3.06,3.06,0,0,1,5.67,1,4.42,4.42,0,0,1,6.55,4Z"/><path class="cls-1" d="M133.8,42.54V35.69c-1.37.41-1.73.68-2.82.9a17.42,17.42,0,0,1-3.18.47,12.86,12.86,0,0,1-2.86-.19,9,9,0,0,1-3.72-1.15,8.2,8.2,0,0,1-4-5.7,20.74,20.74,0,0,1-.24-3.35V14.13a4.34,4.34,0,0,1,.9-3,3,3,0,0,1,2.39-1q3.24,0,3.24,4V25.19a10.15,10.15,0,0,0,.94,4.83q.94,1.69,3.55,1.69a5.32,5.32,0,0,0,3.15-1,6,6,0,0,0,2.1-2.72,17.42,17.42,0,0,0,.53-5.21V14.13a4.43,4.43,0,0,1,.88-3,3,3,0,0,1,2.43-1q3.24,0,3.24,4V42.54a4.5,4.5,0,0,1-.85,3,3,3,0,0,1-2.39,1,3.06,3.06,0,0,1-2.43-1A4.42,4.42,0,0,1,133.8,42.54Z"/><path class="cls-1" d="M46.42,32.52l.64,2.34A11.38,11.38,0,0,1,43.64,36a17.42,17.42,0,0,1-3.18.47,12.86,12.86,0,0,1-2.86-.19,9.12,9.12,0,0,1-3.76-1,8.2,8.2,0,0,1-4-5.7,20.74,20.74,0,0,1-.24-3.35V13.72a4.34,4.34,0,0,1,.9-3,3,3,0,0,1,2.39-1q3.24,0,3.24,4V24.78a10.15,10.15,0,0,0,.94,4.83q.94,1.69,3.55,1.69a5.32,5.32,0,0,0,3.15-1,6,6,0,0,0,2.1-2.72,17.42,17.42,0,0,0,.53-5.21V13.72a4.43,4.43,0,0,1,.88-3,3,3,0,0,1,2.43-1q3.24,0,3.24,4v18.8a4.5,4.5,0,0,1-.85,3,3,3,0,0,1-2.39,1,3.06,3.06,0,0,1-2.43-1A4.42,4.42,0,0,1,46.42,32.52Z"/><path class="cls-1" d="M66,13.74l-.64-2.34a11.38,11.38,0,0,1,3.41-1.16A17,17,0,0,1,72,9.81a16.07,16.07,0,0,1,3.16.12,8.61,8.61,0,0,1,3.41,1,7,7,0,0,1,3,3.07,7.51,7.51,0,0,1,.94,2.63A20.74,20.74,0,0,1,82.75,20V32.54a4.34,4.34,0,0,1-.9,3,3,3,0,0,1-2.39,1q-3.24,0-3.24-4V21.48a10.15,10.15,0,0,0-.94-4.83Q74.35,15,71.74,15a5.32,5.32,0,0,0-3.15,1,6,6,0,0,0-2.1,2.72A17.42,17.42,0,0,0,66,23.88v8.66a4.43,4.43,0,0,1-.88,3,3,3,0,0,1-2.43,1q-3.24,0-3.24-4V13.74a4.5,4.5,0,0,1,.85-3,3,3,0,0,1,2.39-1,3.06,3.06,0,0,1,2.43,1A4.42,4.42,0,0,1,66,13.74Z"/><path class="cls-1" d="M95.65,13.74,95,11.39a11.38,11.38,0,0,1,3.41-1.16,17,17,0,0,1,3.24-.42,16.07,16.07,0,0,1,3.16.12,8.61,8.61,0,0,1,3.41,1,7,7,0,0,1,3,3.07,7.51,7.51,0,0,1,.94,2.63,20.74,20.74,0,0,1,.24,3.35V32.54a4.34,4.34,0,0,1-.9,3,3,3,0,0,1-2.39,1q-3.24,0-3.24-4V21.48a10.15,10.15,0,0,0-.94-4.83Q104.05,15,101.44,15a5.32,5.32,0,0,0-3.15,1,6,6,0,0,0-2.1,2.72,17.42,17.42,0,0,0-.53,5.21v8.66a4.43,4.43,0,0,1-.88,3,3,3,0,0,1-2.43,1q-3.24,0-3.24-4V13.74a4.5,4.5,0,0,1,.85-3,3,3,0,0,1,2.39-1,3.06,3.06,0,0,1,2.43,1A4.42,4.42,0,0,1,95.65,13.74Z"/><path class="cls-1" d="M2.55,2.55"/></svg>